<svg width="34" height="34" viewBox="0 0 34 34" fill="none" xmlns="http://www.w3.org/2000/svg">
<path opacity="0.9" d="M0 4C0 1.79086 1.79086 0 4 0H30C32.2091 0 34 1.79086 34 4V30C34 32.2091 32.2091 34 30 34H4C1.79086 34 0 32.2091 0 30V4Z" fill="#FAFAFA"/>
<path d="M5.66958 6.99299C10.7684 7.17189 15.3479 5.42767 17.0003 4.5332V29.4665C5.19747 25.4414 5.66958 17.2794 5.66958 14.8196V6.99299Z" fill="#F3DB91"/>
<path d="M28.3314 6.99299C23.2326 7.17189 18.6531 5.42767 17.0007 4.5332V29.4665C28.8035 25.4414 28.3314 17.2794 28.3314 14.8196V6.99299Z" fill="#F7CB63"/>
<path d="M16.6287 18.6709C17.167 19.2092 17.1425 20.1447 16.5752 20.712C16.0079 21.2794 15.0723 21.3039 14.534 20.7656L11.194 17.4274C10.6557 16.8891 10.6802 15.9536 11.2475 15.3863C11.8148 14.8189 12.7504 14.7944 13.2887 15.3327L16.6287 18.6709Z" fill="white"/>
<path d="M16.783 20.9188C16.2157 21.4861 15.2802 21.5106 14.7419 20.9723C14.2035 20.434 14.2281 19.4985 14.7954 18.9312L20.7137 13.0128C21.2811 12.4455 22.2166 12.421 22.7549 12.9593C23.2932 13.4976 23.2687 14.4331 22.7014 15.0004L16.783 20.9188Z" fill="white"/>
</svg>
